<svg xmlns="http://www.w3.org/2000/svg" viewBox="0 0 400 400" preserveAspectRatio="xMidYMid slice"><defs><linearGradient id="g" x1="50.0%" y1="0.0%" x2="50.0%" y2="100.0%"><stop offset="0" stop-color="#0b1026"/><stop offset="0.7" stop-color="#23284e"/><stop offset="1" stop-color="#c98a3c"/></linearGradient></defs><rect width="400" height="400" fill="url(#g)"/><rect x="10" y="213" width="43" height="187" fill="#070a18"/><rect x="30" y="225" width="5" height="7" fill="#ffd98a" opacity="0.85"/><rect x="44" y="225" width="5" height="7" fill="#ffd98a" opacity="0.85"/><rect x="16" y="247" width="5" height="7" fill="#ffd98a" opacity="0.85"/><rect x="30" y="247" width="5" height="7" fill="#ffd98a" opacity="0.85"/><rect x="44" y="247" width="5" height="7" fill="#ffd98a" opacity="0.85"/><rect x="30" y="269" width="5" height="7" fill="#ffd98a" opacity="0.85"/><rect x="44" y="291" width="5" height="7" fill="#ffd98a" opacity="0.85"/><rect x="30" y="313" width="5" height="7" fill="#ffd98a" opacity="0.85"/><rect x="44" y="313" width="5" height="7" fill="#ffd98a" opacity="0.85"/><rect x="16" y="335" width="5" height="7" fill="#ffd98a" opacity="0.85"/><rect x="44" y="335" width="5" height="7" fill="#ffd98a" opacity="0.85"/><rect x="16" y="357" width="5" height="7" fill="#ffd98a" opacity="0.85"/><rect x="30" y="357" width="5" height="7" fill="#ffd98a" opacity="0.85"/><rect x="44" y="357" width="5" height="7" fill="#ffd98a" opacity="0.85"/><rect x="16" y="379" width="5" height="7" fill="#ffd98a" opacity="0.85"/><rect x="63" y="103" width="48" height="297" fill="#070a18"/><rect x="83" y="115" width="5" height="7" fill="#ffd98a" opacity="0.85"/><rect x="97" y="137" width="5" height="7" fill="#ffd98a" opacity="0.85"/><rect x="69" y="159" width="5" height="7" fill="#ffd98a" opacity="0.85"/><rect x="83" y="159" width="5" height="7" fill="#ffd98a" opacity="0.85"/><rect x="69" y="181" width="5" height="7" fill="#ffd98a" opacity="0.85"/><rect x="83" y="181" width="5" height="7" fill="#ffd98a" opacity="0.85"/><rect x="97" y="181" width="5" height="7" fill="#ffd98a" opacity="0.85"/><rect x="83" y="203" width="5" height="7" fill="#ffd98a" opacity="0.85"/><rect x="69" y="225" width="5" height="7" fill="#ffd98a" opacity="0.85"/><rect x="83" y="225" width="5" height="7" fill="#ffd98a" opacity="0.85"/><rect x="69" y="247" width="5" height="7" fill="#ffd98a" opacity="0.85"/><rect x="83" y="247" width="5" height="7" fill="#ffd98a" opacity="0.85"/><rect x="97" y="247" width="5" height="7" fill="#ffd98a" opacity="0.85"/><rect x="69" y="291" width="5" height="7" fill="#ffd98a" opacity="0.85"/><rect x="97" y="291" width="5" height="7" fill="#ffd98a" opacity="0.85"/><rect x="83" y="313" width="5" height="7" fill="#ffd98a" opacity="0.85"/><rect x="97" y="313" width="5" height="7" fill="#ffd98a" opacity="0.85"/><rect x="83" y="335" width="5" height="7" fill="#ffd98a" opacity="0.85"/><rect x="97" y="335" width="5" height="7" fill="#ffd98a" opacity="0.85"/><rect x="69" y="357" width="5" height="7" fill="#ffd98a" opacity="0.85"/><rect x="83" y="357" width="5" height="7" fill="#ffd98a" opacity="0.85"/><rect x="69" y="379" width="5" height="7" fill="#ffd98a" opacity="0.85"/><rect x="83" y="379" width="5" height="7" fill="#ffd98a" opacity="0.85"/><rect x="117" y="106" width="43" height="294" fill="#070a18"/><rect x="123" y="118" width="5" height="7" fill="#ffd98a" opacity="0.85"/><rect x="151" y="140" width="5" height="7" fill="#ffd98a" opacity="0.85"/><rect x="137" y="162" width="5" height="7" fill="#ffd98a" opacity="0.85"/><rect x="151" y="162" width="5" height="7" fill="#ffd98a" opacity="0.85"/><rect x="137" y="184" width="5" height="7" fill="#ffd98a" opacity="0.85"/><rect x="151" y="184" width="5" height="7" fill="#ffd98a" opacity="0.85"/><rect x="123" y="206" width="5" height="7" fill="#ffd98a" opacity="0.85"/><rect x="137" y="228" width="5" height="7" fill="#ffd98a" opacity="0.85"/><rect x="151" y="228" width="5" height="7" fill="#ffd98a" opacity="0.85"/><rect x="151" y="272" width="5" height="7" fill="#ffd98a" opacity="0.85"/><rect x="137" y="294" width="5" height="7" fill="#ffd98a" opacity="0.85"/><rect x="137" y="316" width="5" height="7" fill="#ffd98a" opacity="0.85"/><rect x="137" y="338" width="5" height="7" fill="#ffd98a" opacity="0.85"/><rect x="151" y="338" width="5" height="7" fill="#ffd98a" opacity="0.85"/><rect x="123" y="360" width="5" height="7" fill="#ffd98a" opacity="0.85"/><rect x="137" y="360" width="5" height="7" fill="#ffd98a" opacity="0.85"/><rect x="151" y="360" width="5" height="7" fill="#ffd98a" opacity="0.85"/><rect x="123" y="382" width="5" height="7" fill="#ffd98a" opacity="0.85"/><rect x="137" y="382" width="5" height="7" fill="#ffd98a" opacity="0.85"/><rect x="151" y="382" width="5" height="7" fill="#ffd98a" opacity="0.85"/><rect x="166" y="175" width="51" height="225" fill="#070a18"/><rect x="172" y="187" width="5" height="7" fill="#ffd98a" opacity="0.85"/><rect x="186" y="187" width="5" height="7" fill="#ffd98a" opacity="0.85"/><rect x="200" y="187" width="5" height="7" fill="#ffd98a" opacity="0.85"/><rect x="200" y="209" width="5" height="7" fill="#ffd98a" opacity="0.85"/><rect x="186" y="231" width="5" height="7" fill="#ffd98a" opacity="0.85"/><rect x="186" y="253" width="5" height="7" fill="#ffd98a" opacity="0.85"/><rect x="200" y="253" width="5" height="7" fill="#ffd98a" opacity="0.85"/><rect x="186" y="275" width="5" height="7" fill="#ffd98a" opacity="0.85"/><rect x="172" y="297" width="5" height="7" fill="#ffd98a" opacity="0.85"/><rect x="200" y="319" width="5" height="7" fill="#ffd98a" opacity="0.85"/><rect x="172" y="341" width="5" height="7" fill="#ffd98a" opacity="0.85"/><rect x="200" y="341" width="5" height="7" fill="#ffd98a" opacity="0.85"/><rect x="172" y="363" width="5" height="7" fill="#ffd98a" opacity="0.85"/><rect x="224" y="219" width="38" height="181" fill="#070a18"/><rect x="244" y="231" width="5" height="7" fill="#ffd98a" opacity="0.85"/><rect x="230" y="275" width="5" height="7" fill="#ffd98a" opacity="0.85"/><rect x="230" y="297" width="5" height="7" fill="#ffd98a" opacity="0.85"/><rect x="244" y="319" width="5" height="7" fill="#ffd98a" opacity="0.85"/><rect x="230" y="341" width="5" height="7" fill="#ffd98a" opacity="0.85"/><rect x="244" y="341" width="5" height="7" fill="#ffd98a" opacity="0.85"/><rect x="244" y="363" width="5" height="7" fill="#ffd98a" opacity="0.85"/><rect x="230" y="385" width="5" height="7" fill="#ffd98a" opacity="0.85"/><rect x="244" y="385" width="5" height="7" fill="#ffd98a" opacity="0.85"/><rect x="271" y="211" width="30" height="189" fill="#070a18"/><rect x="277" y="223" width="5" height="7" fill="#ffd98a" opacity="0.85"/><rect x="277" y="245" width="5" height="7" fill="#ffd98a" opacity="0.85"/><rect x="291" y="267" width="5" height="7" fill="#ffd98a" opacity="0.85"/><rect x="277" y="289" width="5" height="7" fill="#ffd98a" opacity="0.85"/><rect x="291" y="311" width="5" height="7" fill="#ffd98a" opacity="0.85"/><rect x="277" y="333" width="5" height="7" fill="#ffd98a" opacity="0.85"/><rect x="291" y="333" width="5" height="7" fill="#ffd98a" opacity="0.85"/><rect x="277" y="355" width="5" height="7" fill="#ffd98a" opacity="0.85"/><rect x="277" y="377" width="5" height="7" fill="#ffd98a" opacity="0.85"/><rect x="291" y="377" width="5" height="7" fill="#ffd98a" opacity="0.85"/><rect x="315" y="166" width="42" height="234" fill="#070a18"/><rect x="321" y="200" width="5" height="7" fill="#ffd98a" opacity="0.85"/><rect x="335" y="200" width="5" height="7" fill="#ffd98a" opacity="0.85"/><rect x="349" y="200" width="5" height="7" fill="#ffd98a" opacity="0.85"/><rect x="321" y="222" width="5" height="7" fill="#ffd98a" opacity="0.85"/><rect x="335" y="222" width="5" height="7" fill="#ffd98a" opacity="0.85"/><rect x="349" y="222" width="5" height="7" fill="#ffd98a" opacity="0.85"/><rect x="321" y="244" width="5" height="7" fill="#ffd98a" opacity="0.85"/><rect x="335" y="244" width="5" height="7" fill="#ffd98a" opacity="0.85"/><rect x="321" y="266" width="5" height="7" fill="#ffd98a" opacity="0.85"/><rect x="349" y="266" width="5" height="7" fill="#ffd98a" opacity="0.85"/><rect x="321" y="288" width="5" height="7" fill="#ffd98a" opacity="0.85"/><rect x="335" y="310" width="5" height="7" fill="#ffd98a" opacity="0.85"/><rect x="349" y="310" width="5" height="7" fill="#ffd98a" opacity="0.85"/><rect x="349" y="332" width="5" height="7" fill="#ffd98a" opacity="0.85"/><rect x="321" y="354" width="5" height="7" fill="#ffd98a" opacity="0.85"/><rect x="321" y="376" width="5" height="7" fill="#ffd98a" opacity="0.85"/><rect x="370" y="200" width="36" height="200" fill="#070a18"/><rect x="376" y="212" width="5" height="7" fill="#ffd98a" opacity="0.85"/><rect x="390" y="212" width="5" height="7" fill="#ffd98a" opacity="0.85"/><rect x="376" y="234" width="5" height="7" fill="#ffd98a" opacity="0.85"/><rect x="390" y="256" width="5" height="7" fill="#ffd98a" opacity="0.85"/><rect x="376" y="278" width="5" height="7" fill="#ffd98a" opacity="0.85"/><rect x="390" y="300" width="5" height="7" fill="#ffd98a" opacity="0.85"/><rect x="376" y="322" width="5" height="7" fill="#ffd98a" opacity="0.85"/><rect x="390" y="344" width="5" height="7" fill="#ffd98a" opacity="0.85"/><rect x="376" y="366" width="5" height="7" fill="#ffd98a" opacity="0.85"/><filter id="n"><feTurbulence type="fractalNoise" baseFrequency="0.9" numOctaves="2" stitchTiles="stitch"/><feColorMatrix type="saturate" values="0"/></filter><rect width="400" height="400" filter="url(#n)" opacity="0.04"/></svg>