<svg xmlns="http://www.w3.org/2000/svg" viewBox="0 0 400 400" preserveAspectRatio="xMidYMid slice"><defs><radialGradient id="r" cx="50%" cy="50%" r="70%"><stop offset="0" stop-color="#2a0d1f"/><stop offset="1" stop-color="#0d0610"/></radialGradient></defs><rect width="400" height="400" fill="url(#r)"/><ellipse cx="200" cy="200" rx="22" ry="100" fill="#d6743f" opacity="0.7" transform="rotate(0 200 200)"/><ellipse cx="200" cy="200" rx="22" ry="100" fill="#c93f6a" opacity="0.7" transform="rotate(45 200 200)"/><ellipse cx="200" cy="200" rx="22" ry="100" fill="#e8b066" opacity="0.7" transform="rotate(90 200 200)"/><ellipse cx="200" cy="200" rx="22" ry="100" fill="#a23b7c" opacity="0.7" transform="rotate(135 200 200)"/><ellipse cx="200" cy="200" rx="22" ry="100" fill="#d6743f" opacity="0.7" transform="rotate(180 200 200)"/><ellipse cx="200" cy="200" rx="22" ry="100" fill="#c93f6a" opacity="0.7" transform="rotate(225 200 200)"/><ellipse cx="200" cy="200" rx="22" ry="100" fill="#e8b066" opacity="0.7" transform="rotate(270 200 200)"/><ellipse cx="200" cy="200" rx="22" ry="100" fill="#a23b7c" opacity="0.7" transform="rotate(315 200 200)"/><circle cx="200" cy="200" r="34" fill="#ffd98a"/><filter id="n"><feTurbulence type="fractalNoise" baseFrequency="0.9" numOctaves="2" stitchTiles="stitch"/><feColorMatrix type="saturate" values="0"/></filter><rect width="400" height="400" filter="url(#n)" opacity="0.05"/></svg>