<svg xmlns="http://www.w3.org/2000/svg" viewBox="0 0 400 400" preserveAspectRatio="xMidYMid slice"><defs><linearGradient id="g" x1="50.0%" y1="0.0%" x2="50.0%" y2="100.0%"><stop offset="0" stop-color="#04101a"/><stop offset="1" stop-color="#0a2438"/></linearGradient></defs><rect width="400" height="400" fill="url(#g)"/><circle cx="185" cy="101" r="1" fill="#fff" opacity="0.42"/><circle cx="149" cy="129" r="1" fill="#fff" opacity="0.34"/><circle cx="253" cy="51" r="1" fill="#fff" opacity="0.49"/><circle cx="99" cy="59" r="1" fill="#fff" opacity="0.58"/><circle cx="135" cy="75" r="1" fill="#fff" opacity="0.37"/><circle cx="319" cy="126" r="1" fill="#fff" opacity="0.67"/><circle cx="114" cy="124" r="1" fill="#fff" opacity="0.55"/><circle cx="340" cy="14" r="1" fill="#fff" opacity="0.87"/><circle cx="74" cy="100" r="1" fill="#fff" opacity="0.33"/><circle cx="12" cy="36" r="1" fill="#fff" opacity="0.55"/><circle cx="363" cy="15" r="1" fill="#fff" opacity="0.41"/><circle cx="230" cy="80" r="1" fill="#fff" opacity="0.74"/><circle cx="40" cy="42" r="1" fill="#fff" opacity="0.50"/><circle cx="94" cy="134" r="1" fill="#fff" opacity="0.75"/><circle cx="16" cy="79" r="1" fill="#fff" opacity="0.70"/><circle cx="193" cy="95" r="1" fill="#fff" opacity="0.89"/><circle cx="226" cy="43" r="1" fill="#fff" opacity="0.37"/><circle cx="40" cy="71" r="1" fill="#fff" opacity="0.35"/><circle cx="215" cy="31" r="1" fill="#fff" opacity="0.64"/><circle cx="388" cy="53" r="1" fill="#fff" opacity="0.53"/><circle cx="393" cy="79" r="1" fill="#fff" opacity="0.79"/><circle cx="221" cy="22" r="1" fill="#fff" opacity="0.33"/><circle cx="242" cy="50" r="1" fill="#fff" opacity="0.52"/><circle cx="228" cy="49" r="1" fill="#fff" opacity="0.49"/><circle cx="377" cy="121" r="1" fill="#fff" opacity="0.32"/><circle cx="210" cy="63" r="1" fill="#fff" opacity="0.79"/><circle cx="392" cy="103" r="1" fill="#fff" opacity="0.32"/><circle cx="17" cy="118" r="1" fill="#fff" opacity="0.34"/><circle cx="31" cy="65" r="1" fill="#fff" opacity="0.42"/><circle cx="32" cy="86" r="1" fill="#fff" opacity="0.52"/><circle cx="171" cy="11" r="1" fill="#fff" opacity="0.46"/><circle cx="366" cy="81" r="1" fill="#fff" opacity="0.85"/><circle cx="152" cy="0" r="1" fill="#fff" opacity="0.73"/><circle cx="304" cy="16" r="1" fill="#fff" opacity="0.31"/><circle cx="119" cy="27" r="1" fill="#fff" opacity="0.59"/><circle cx="238" cy="98" r="1" fill="#fff" opacity="0.77"/><circle cx="220" cy="126" r="1" fill="#fff" opacity="0.38"/><circle cx="254" cy="46" r="1" fill="#fff" opacity="0.31"/><circle cx="378" cy="77" r="1" fill="#fff" opacity="0.79"/><circle cx="395" cy="38" r="1" fill="#fff" opacity="0.66"/><path d="M0 170 Q130 100 260 160 T400 140 V400 H0 Z" fill="#3fd6a0" opacity="0.45"/><path d="M0 210 Q130 140 260 200 T400 180 V400 H0 Z" fill="#5fb0e0" opacity="0.45"/><path d="M0 250 Q130 180 260 240 T400 220 V400 H0 Z" fill="#9a6fd0" opacity="0.45"/><filter id="n"><feTurbulence type="fractalNoise" baseFrequency="0.9" numOctaves="2" stitchTiles="stitch"/><feColorMatrix type="saturate" values="0"/></filter><rect width="400" height="400" filter="url(#n)" opacity="0.04"/></svg>