<svg xmlns="http://www.w3.org/2000/svg" viewBox="0 0 400 400" preserveAspectRatio="xMidYMid slice"><defs><radialGradient id="r" cx="40%" cy="35%" r="80%"><stop offset="0" stop-color="#c98a3c"/><stop offset="0.4" stop-color="#5b2b6b"/><stop offset="1" stop-color="#0a0816"/></radialGradient></defs><rect width="400" height="400" fill="url(#r)"/><circle cx="165" cy="77" r="1" fill="#fff" opacity="0.79"/><circle cx="37" cy="274" r="1" fill="#fff" opacity="0.62"/><circle cx="29" cy="259" r="1" fill="#fff" opacity="0.42"/><circle cx="222" cy="214" r="1" fill="#fff" opacity="0.54"/><circle cx="282" cy="217" r="1" fill="#fff" opacity="0.90"/><circle cx="63" cy="114" r="2" fill="#fff" opacity="0.78"/><circle cx="31" cy="295" r="2" fill="#fff" opacity="0.64"/><circle cx="113" cy="23" r="2" fill="#fff" opacity="0.92"/><circle cx="148" cy="214" r="1" fill="#fff" opacity="0.72"/><circle cx="292" cy="157" r="2" fill="#fff" opacity="0.89"/><circle cx="92" cy="52" r="2" fill="#fff" opacity="0.74"/><circle cx="96" cy="190" r="1" fill="#fff" opacity="0.73"/><circle cx="32" cy="288" r="1" fill="#fff" opacity="0.77"/><circle cx="254" cy="348" r="2" fill="#fff" opacity="0.66"/><circle cx="160" cy="238" r="2" fill="#fff" opacity="0.95"/><circle cx="185" cy="153" r="1" fill="#fff" opacity="0.88"/><circle cx="357" cy="399" r="1" fill="#fff" opacity="0.45"/><circle cx="153" cy="268" r="1" fill="#fff" opacity="0.93"/><circle cx="373" cy="229" r="1" fill="#fff" opacity="0.77"/><circle cx="37" cy="60" r="2" fill="#fff" opacity="0.65"/><circle cx="387" cy="175" r="1" fill="#fff" opacity="0.96"/><circle cx="215" cy="20" r="2" fill="#fff" opacity="0.45"/><circle cx="285" cy="293" r="1" fill="#fff" opacity="0.60"/><circle cx="179" cy="304" r="1" fill="#fff" opacity="0.75"/><circle cx="233" cy="35" r="1" fill="#fff" opacity="0.97"/><circle cx="242" cy="356" r="2" fill="#fff" opacity="0.44"/><circle cx="374" cy="359" r="1" fill="#fff" opacity="0.79"/><circle cx="348" cy="228" r="1" fill="#fff" opacity="0.83"/><circle cx="342" cy="177" r="1" fill="#fff" opacity="0.96"/><circle cx="181" cy="86" r="2" fill="#fff" opacity="0.47"/><circle cx="30" cy="111" r="1" fill="#fff" opacity="0.48"/><circle cx="126" cy="203" r="1" fill="#fff" opacity="0.95"/><circle cx="254" cy="41" r="1" fill="#fff" opacity="0.67"/><circle cx="281" cy="142" r="1" fill="#fff" opacity="0.89"/><circle cx="281" cy="142" r="2" fill="#fff" opacity="0.65"/><circle cx="183" cy="349" r="1" fill="#fff" opacity="0.97"/><circle cx="77" cy="42" r="1" fill="#fff" opacity="0.49"/><circle cx="337" cy="119" r="1" fill="#fff" opacity="0.69"/><circle cx="301" cy="93" r="1" fill="#fff" opacity="0.57"/><circle cx="74" cy="214" r="2" fill="#fff" opacity="0.62"/><circle cx="289" cy="163" r="1" fill="#fff" opacity="0.81"/><circle cx="263" cy="316" r="2" fill="#fff" opacity="0.81"/><circle cx="27" cy="233" r="2" fill="#fff" opacity="0.88"/><circle cx="200" cy="203" r="1" fill="#fff" opacity="0.64"/><circle cx="246" cy="324" r="1" fill="#fff" opacity="0.44"/><circle cx="34" cy="106" r="1" fill="#fff" opacity="0.50"/><circle cx="174" cy="307" r="1" fill="#fff" opacity="0.46"/><circle cx="290" cy="77" r="2" fill="#fff" opacity="0.46"/><circle cx="186" cy="314" r="1" fill="#fff" opacity="0.44"/><circle cx="106" cy="314" r="1" fill="#fff" opacity="0.49"/><circle cx="129" cy="177" r="2" fill="#fff" opacity="0.62"/><circle cx="62" cy="59" r="1" fill="#fff" opacity="1.00"/><circle cx="238" cy="245" r="1" fill="#fff" opacity="0.59"/><circle cx="73" cy="52" r="2" fill="#fff" opacity="0.61"/><circle cx="135" cy="245" r="2" fill="#fff" opacity="0.50"/><circle cx="11" cy="105" r="2" fill="#fff" opacity="0.62"/><circle cx="353" cy="278" r="1" fill="#fff" opacity="0.85"/><circle cx="152" cy="329" r="1" fill="#fff" opacity="0.82"/><circle cx="133" cy="265" r="1" fill="#fff" opacity="0.94"/><circle cx="182" cy="395" r="1" fill="#fff" opacity="0.72"/><filter id="n"><feTurbulence type="fractalNoise" baseFrequency="0.9" numOctaves="2" stitchTiles="stitch"/><feColorMatrix type="saturate" values="0"/></filter><rect width="400" height="400" filter="url(#n)" opacity="0.04"/></svg>