<svg xmlns="http://www.w3.org/2000/svg" viewBox="0 0 400 400" preserveAspectRatio="xMidYMid slice"><defs><linearGradient id="g" x1="50.0%" y1="0.0%" x2="50.0%" y2="100.0%"><stop offset="0" stop-color="#0b1026"/><stop offset="0.7" stop-color="#23284e"/><stop offset="1" stop-color="#c98a3c"/></linearGradient></defs><rect width="400" height="400" fill="url(#g)"/><rect x="10" y="152" width="52" height="248" fill="#070a18"/><rect x="44" y="164" width="5" height="7" fill="#ffd98a" opacity="0.85"/><rect x="16" y="186" width="5" height="7" fill="#ffd98a" opacity="0.85"/><rect x="30" y="186" width="5" height="7" fill="#ffd98a" opacity="0.85"/><rect x="44" y="186" width="5" height="7" fill="#ffd98a" opacity="0.85"/><rect x="16" y="208" width="5" height="7" fill="#ffd98a" opacity="0.85"/><rect x="30" y="208" width="5" height="7" fill="#ffd98a" opacity="0.85"/><rect x="16" y="230" width="5" height="7" fill="#ffd98a" opacity="0.85"/><rect x="16" y="274" width="5" height="7" fill="#ffd98a" opacity="0.85"/><rect x="30" y="274" width="5" height="7" fill="#ffd98a" opacity="0.85"/><rect x="16" y="296" width="5" height="7" fill="#ffd98a" opacity="0.85"/><rect x="30" y="296" width="5" height="7" fill="#ffd98a" opacity="0.85"/><rect x="44" y="296" width="5" height="7" fill="#ffd98a" opacity="0.85"/><rect x="44" y="340" width="5" height="7" fill="#ffd98a" opacity="0.85"/><rect x="16" y="362" width="5" height="7" fill="#ffd98a" opacity="0.85"/><rect x="30" y="362" width="5" height="7" fill="#ffd98a" opacity="0.85"/><rect x="44" y="362" width="5" height="7" fill="#ffd98a" opacity="0.85"/><rect x="16" y="384" width="5" height="7" fill="#ffd98a" opacity="0.85"/><rect x="30" y="384" width="5" height="7" fill="#ffd98a" opacity="0.85"/><rect x="69" y="229" width="40" height="171" fill="#070a18"/><rect x="75" y="241" width="5" height="7" fill="#ffd98a" opacity="0.85"/><rect x="75" y="263" width="5" height="7" fill="#ffd98a" opacity="0.85"/><rect x="75" y="285" width="5" height="7" fill="#ffd98a" opacity="0.85"/><rect x="89" y="285" width="5" height="7" fill="#ffd98a" opacity="0.85"/><rect x="75" y="329" width="5" height="7" fill="#ffd98a" opacity="0.85"/><rect x="89" y="329" width="5" height="7" fill="#ffd98a" opacity="0.85"/><rect x="89" y="373" width="5" height="7" fill="#ffd98a" opacity="0.85"/><rect x="117" y="128" width="47" height="272" fill="#070a18"/><rect x="123" y="140" width="5" height="7" fill="#ffd98a" opacity="0.85"/><rect x="137" y="140" width="5" height="7" fill="#ffd98a" opacity="0.85"/><rect x="123" y="162" width="5" height="7" fill="#ffd98a" opacity="0.85"/><rect x="123" y="184" width="5" height="7" fill="#ffd98a" opacity="0.85"/><rect x="137" y="184" width="5" height="7" fill="#ffd98a" opacity="0.85"/><rect x="151" y="184" width="5" height="7" fill="#ffd98a" opacity="0.85"/><rect x="123" y="206" width="5" height="7" fill="#ffd98a" opacity="0.85"/><rect x="151" y="206" width="5" height="7" fill="#ffd98a" opacity="0.85"/><rect x="123" y="228" width="5" height="7" fill="#ffd98a" opacity="0.85"/><rect x="151" y="250" width="5" height="7" fill="#ffd98a" opacity="0.85"/><rect x="123" y="294" width="5" height="7" fill="#ffd98a" opacity="0.85"/><rect x="151" y="294" width="5" height="7" fill="#ffd98a" opacity="0.85"/><rect x="123" y="316" width="5" height="7" fill="#ffd98a" opacity="0.85"/><rect x="137" y="316" width="5" height="7" fill="#ffd98a" opacity="0.85"/><rect x="123" y="338" width="5" height="7" fill="#ffd98a" opacity="0.85"/><rect x="137" y="338" width="5" height="7" fill="#ffd98a" opacity="0.85"/><rect x="151" y="338" width="5" height="7" fill="#ffd98a" opacity="0.85"/><rect x="123" y="360" width="5" height="7" fill="#ffd98a" opacity="0.85"/><rect x="151" y="382" width="5" height="7" fill="#ffd98a" opacity="0.85"/><rect x="172" y="159" width="32" height="241" fill="#070a18"/><rect x="178" y="171" width="5" height="7" fill="#ffd98a" opacity="0.85"/><rect x="192" y="193" width="5" height="7" fill="#ffd98a" opacity="0.85"/><rect x="178" y="215" width="5" height="7" fill="#ffd98a" opacity="0.85"/><rect x="192" y="215" width="5" height="7" fill="#ffd98a" opacity="0.85"/><rect x="178" y="237" width="5" height="7" fill="#ffd98a" opacity="0.85"/><rect x="192" y="237" width="5" height="7" fill="#ffd98a" opacity="0.85"/><rect x="178" y="303" width="5" height="7" fill="#ffd98a" opacity="0.85"/><rect x="178" y="325" width="5" height="7" fill="#ffd98a" opacity="0.85"/><rect x="192" y="347" width="5" height="7" fill="#ffd98a" opacity="0.85"/><rect x="178" y="369" width="5" height="7" fill="#ffd98a" opacity="0.85"/><rect x="192" y="391" width="5" height="7" fill="#ffd98a" opacity="0.85"/><rect x="217" y="217" width="44" height="183" fill="#070a18"/><rect x="223" y="229" width="5" height="7" fill="#ffd98a" opacity="0.85"/><rect x="237" y="229" width="5" height="7" fill="#ffd98a" opacity="0.85"/><rect x="251" y="229" width="5" height="7" fill="#ffd98a" opacity="0.85"/><rect x="237" y="251" width="5" height="7" fill="#ffd98a" opacity="0.85"/><rect x="251" y="251" width="5" height="7" fill="#ffd98a" opacity="0.85"/><rect x="223" y="273" width="5" height="7" fill="#ffd98a" opacity="0.85"/><rect x="237" y="317" width="5" height="7" fill="#ffd98a" opacity="0.85"/><rect x="251" y="317" width="5" height="7" fill="#ffd98a" opacity="0.85"/><rect x="223" y="339" width="5" height="7" fill="#ffd98a" opacity="0.85"/><rect x="251" y="339" width="5" height="7" fill="#ffd98a" opacity="0.85"/><rect x="223" y="361" width="5" height="7" fill="#ffd98a" opacity="0.85"/><rect x="251" y="361" width="5" height="7" fill="#ffd98a" opacity="0.85"/><rect x="223" y="383" width="5" height="7" fill="#ffd98a" opacity="0.85"/><rect x="251" y="383" width="5" height="7" fill="#ffd98a" opacity="0.85"/><rect x="273" y="239" width="43" height="161" fill="#070a18"/><rect x="279" y="251" width="5" height="7" fill="#ffd98a" opacity="0.85"/><rect x="293" y="251" width="5" height="7" fill="#ffd98a" opacity="0.85"/><rect x="293" y="273" width="5" height="7" fill="#ffd98a" opacity="0.85"/><rect x="307" y="295" width="5" height="7" fill="#ffd98a" opacity="0.85"/><rect x="293" y="317" width="5" height="7" fill="#ffd98a" opacity="0.85"/><rect x="307" y="339" width="5" height="7" fill="#ffd98a" opacity="0.85"/><rect x="279" y="361" width="5" height="7" fill="#ffd98a" opacity="0.85"/><rect x="307" y="361" width="5" height="7" fill="#ffd98a" opacity="0.85"/><rect x="279" y="383" width="5" height="7" fill="#ffd98a" opacity="0.85"/><rect x="293" y="383" width="5" height="7" fill="#ffd98a" opacity="0.85"/><rect x="326" y="270" width="36" height="130" fill="#070a18"/><rect x="332" y="282" width="5" height="7" fill="#ffd98a" opacity="0.85"/><rect x="332" y="304" width="5" height="7" fill="#ffd98a" opacity="0.85"/><rect x="346" y="304" width="5" height="7" fill="#ffd98a" opacity="0.85"/><rect x="332" y="326" width="5" height="7" fill="#ffd98a" opacity="0.85"/><rect x="346" y="326" width="5" height="7" fill="#ffd98a" opacity="0.85"/><rect x="332" y="348" width="5" height="7" fill="#ffd98a" opacity="0.85"/><rect x="332" y="370" width="5" height="7" fill="#ffd98a" opacity="0.85"/><rect x="346" y="370" width="5" height="7" fill="#ffd98a" opacity="0.85"/><rect x="375" y="197" width="50" height="203" fill="#070a18"/><rect x="409" y="209" width="5" height="7" fill="#ffd98a" opacity="0.85"/><rect x="409" y="231" width="5" height="7" fill="#ffd98a" opacity="0.85"/><rect x="381" y="253" width="5" height="7" fill="#ffd98a" opacity="0.85"/><rect x="395" y="253" width="5" height="7" fill="#ffd98a" opacity="0.85"/><rect x="381" y="275" width="5" height="7" fill="#ffd98a" opacity="0.85"/><rect x="409" y="275" width="5" height="7" fill="#ffd98a" opacity="0.85"/><rect x="381" y="297" width="5" height="7" fill="#ffd98a" opacity="0.85"/><rect x="409" y="297" width="5" height="7" fill="#ffd98a" opacity="0.85"/><rect x="381" y="319" width="5" height="7" fill="#ffd98a" opacity="0.85"/><rect x="381" y="341" width="5" height="7" fill="#ffd98a" opacity="0.85"/><rect x="409" y="385" width="5" height="7" fill="#ffd98a" opacity="0.85"/><filter id="n"><feTurbulence type="fractalNoise" baseFrequency="0.9" numOctaves="2" stitchTiles="stitch"/><feColorMatrix type="saturate" values="0"/></filter><rect width="400" height="400" filter="url(#n)" opacity="0.04"/></svg>