<svg xmlns="http://www.w3.org/2000/svg" viewBox="0 0 400 400" preserveAspectRatio="xMidYMid slice"><defs><linearGradient id="g" x1="50.0%" y1="0.0%" x2="50.0%" y2="100.0%"><stop offset="0" stop-color="#04101a"/><stop offset="1" stop-color="#0a2438"/></linearGradient></defs><rect width="400" height="400" fill="url(#g)"/><circle cx="228" cy="128" r="1" fill="#fff" opacity="0.70"/><circle cx="138" cy="88" r="1" fill="#fff" opacity="0.78"/><circle cx="128" cy="9" r="1" fill="#fff" opacity="0.31"/><circle cx="375" cy="129" r="1" fill="#fff" opacity="0.63"/><circle cx="97" cy="131" r="1" fill="#fff" opacity="0.58"/><circle cx="228" cy="27" r="1" fill="#fff" opacity="0.69"/><circle cx="332" cy="110" r="1" fill="#fff" opacity="0.69"/><circle cx="279" cy="100" r="1" fill="#fff" opacity="0.88"/><circle cx="157" cy="55" r="1" fill="#fff" opacity="0.89"/><circle cx="175" cy="50" r="1" fill="#fff" opacity="0.80"/><circle cx="361" cy="35" r="1" fill="#fff" opacity="0.54"/><circle cx="177" cy="13" r="1" fill="#fff" opacity="0.80"/><circle cx="7" cy="18" r="1" fill="#fff" opacity="0.68"/><circle cx="130" cy="110" r="1" fill="#fff" opacity="0.40"/><circle cx="43" cy="97" r="1" fill="#fff" opacity="0.82"/><circle cx="343" cy="72" r="1" fill="#fff" opacity="0.66"/><circle cx="354" cy="75" r="1" fill="#fff" opacity="0.33"/><circle cx="94" cy="40" r="1" fill="#fff" opacity="0.46"/><circle cx="1" cy="67" r="1" fill="#fff" opacity="0.52"/><circle cx="168" cy="140" r="1" fill="#fff" opacity="0.49"/><circle cx="17" cy="79" r="1" fill="#fff" opacity="0.43"/><circle cx="93" cy="0" r="1" fill="#fff" opacity="0.50"/><circle cx="42" cy="121" r="1" fill="#fff" opacity="0.47"/><circle cx="335" cy="51" r="1" fill="#fff" opacity="0.45"/><circle cx="397" cy="1" r="1" fill="#fff" opacity="0.35"/><circle cx="45" cy="36" r="1" fill="#fff" opacity="0.54"/><circle cx="21" cy="100" r="1" fill="#fff" opacity="0.31"/><circle cx="155" cy="59" r="1" fill="#fff" opacity="0.35"/><circle cx="270" cy="39" r="1" fill="#fff" opacity="0.69"/><circle cx="366" cy="99" r="1" fill="#fff" opacity="0.76"/><circle cx="368" cy="126" r="1" fill="#fff" opacity="0.39"/><circle cx="370" cy="37" r="1" fill="#fff" opacity="0.33"/><circle cx="366" cy="131" r="1" fill="#fff" opacity="0.68"/><circle cx="375" cy="129" r="1" fill="#fff" opacity="0.38"/><circle cx="268" cy="129" r="1" fill="#fff" opacity="0.64"/><circle cx="8" cy="58" r="1" fill="#fff" opacity="0.35"/><circle cx="21" cy="34" r="1" fill="#fff" opacity="0.68"/><circle cx="53" cy="96" r="1" fill="#fff" opacity="0.80"/><circle cx="285" cy="12" r="1" fill="#fff" opacity="0.68"/><circle cx="320" cy="136" r="1" fill="#fff" opacity="0.71"/><path d="M0 170 Q130 100 260 160 T400 140 V400 H0 Z" fill="#3fd6a0" opacity="0.45"/><path d="M0 210 Q130 140 260 200 T400 180 V400 H0 Z" fill="#5fb0e0" opacity="0.45"/><path d="M0 250 Q130 180 260 240 T400 220 V400 H0 Z" fill="#9a6fd0" opacity="0.45"/><filter id="n"><feTurbulence type="fractalNoise" baseFrequency="0.9" numOctaves="2" stitchTiles="stitch"/><feColorMatrix type="saturate" values="0"/></filter><rect width="400" height="400" filter="url(#n)" opacity="0.04"/></svg>